<svg class="svg-icon" style="width: 1.318359375em; height: 1em;vertical-align: middle;fill: currentColor;overflow: hidden;" viewBox="0 0 1350 1024" version="1.1" xmlns="http://www.w3.org/2000/svg"><path d="M1316.571991 503.222857h-105.494505c39.103297-53.450549 60.764835-117.096088 60.764835-184.432527 0-85.138286-34.03956-165.19033-95.367033-225.437539C1049.881881-30.26989 844.237925-30.26989 717.925837 93.352791c-17.441758 16.969143-31.507692 35.918769-44.448351 56.286242-12.659341-19.804835-27.006593-38.754462-44.729671-56.286242-126.593407-123.622681-332.237363-123.622681-458.54945 0C108.589574 153.6 74.831332 233.652044 74.831332 318.79033c0 67.325187 21.661538 130.678154 60.764835 184.432527H33.758804c-18.848352 0-33.758242 15.269978-33.758241 33.938286a33.769495 33.769495 0 0 0 33.758241 33.949538h163.446154l451.797802 441.276484c1.969231 1.980484 12.096703 10.183736 23.912088 10.465055 9.846154 0 21.38022-7.348044 24.474726-10.465055l451.235164-441.276484H1316.571991c18.848352 0 33.758242-15.281231 33.758242-33.949538 0-18.668308-15.191209-33.938286-33.758242-33.938286zM216.897266 142.572308c100.430769-98.157714 263.876923-98.157714 364.307692 0 21.38022 20.93011 37.978022 43.840703 50.356044 70.149626 3.657143 7.640615 19.410989 45.821187 41.353846 45.821187 21.942857 0 38.259341-39.03578 41.353847-45.821187 0.281319-0.562637 0.562637-0.855209 0.562637-1.417846 12.940659-26.027604 28.975824-48.656879 49.793406-68.73178 100.430769-98.157714 263.876923-98.157714 364.307693 0 48.386813 47.239033 75.112088 110.029363 75.112088 176.510593 0 66.751297-26.725275 129.27156-75.112088 176.510594l-7.876923 7.640615H932.85331L866.462101 279.473231a34.129582 34.129582 0 0 0-30.101099-24.317187 33.758242 33.758242 0 0 0-33.195604 19.512264L666.725837 568.004923 587.112651 377.642198a33.66822 33.66822 0 0 0-28.975825-20.648791c-12.659341-1.125275-25.037363 5.660132-31.507692 16.687824l-76.237363 129.282813h-225.617582l-7.876923-7.651868c-48.386813-47.22778-75.112088-110.029363-75.112088-176.499341 0.281319-66.481231 26.725275-128.990242 75.112088-176.229275z m456.298901 798.832527l-378.654945-370.001582H461.925837c13.784615 0 27.850549-0.281319 37.134066-13.863385L551.385178 471.827692l82.989011 204.237363c5.063736 12.445538 14.90989 31.687736 30.663736 31.687736h0.562638c17.723077 0 25.037363-18.386989 30.663736-30.26989l131.094505-292.773978 48.105495 162.377143a33.780747 33.780747 0 0 0 32.351648 24.317187H1051.569793l-378.373626 369.990329z" fill="#2E323F" /></svg>